<svg width="198" height="260" viewBox="0 0 198 260" fill="none" xmlns="http://www.w3.org/2000/svg">
<path d="M170.18 201.155L198.002 185.026V123.719L170.18 139.847V201.155Z" fill="#8AA6AA"/>
<path d="M152.742 107.027L157.936 109.988L185.759 93.8598L180.565 90.8984L152.742 107.027Z" fill="#CDD7D8"/>
<path d="M170.177 201.151L152.742 191.092V107.023L157.936 109.985L170.177 139.843V201.151Z" fill="#9FA7AA"/>
<path d="M170.178 139.846L157.938 109.988L185.76 93.8594L198.001 123.718L170.178 139.846Z" fill="#CDD7D8"/>
<path d="M168.661 130.325L160.688 110.917L184.682 97.0156L192.631 116.424L168.661 130.325Z" fill="#8AA6AA"/>
<path d="M193.627 118.844L195.236 122.76L171.242 136.661L169.633 132.745L193.627 118.844Z" fill="#8AA6AA"/>
<path d="M171.304 126.116L188.422 116.277L182.008 101.25L164.891 111.064L171.304 126.116Z" fill="#F6F6F6"/>
<path d="M181.303 102.961L178.719 104.454L179.548 106.412L182.157 104.943L181.303 102.961Z" fill="#E75221"/>
<path d="M178.186 104.75L175.602 106.243L176.431 108.225L179.04 106.732L178.186 104.75Z" fill="#C6C6C6"/>
<path d="M183.499 108.125L180.914 109.593L181.743 111.576L184.352 110.083L183.499 108.125Z" fill="#CDD7D8"/>
<path d="M180.374 109.914L177.789 111.407L178.618 113.365L181.227 111.872L180.374 109.914Z" fill="#C6C6C6"/>
<path d="M175.402 107.979L177.328 112.457C177.596 113.094 177.377 113.853 176.816 114.171L170.403 117.842C169.842 118.16 169.183 117.891 168.915 117.279L166.989 112.8C166.721 112.164 166.94 111.405 167.501 111.087L173.914 107.416C174.475 107.098 175.133 107.367 175.402 107.979Z" fill="#6AC6D0"/>
<path d="M184.593 110.695L182.008 112.188L182.837 114.146L185.446 112.653L184.593 110.695Z" fill="#C6C6C6"/>
<path d="M178.354 114.266L172.648 117.545L173.477 119.528L179.208 116.248L178.354 114.266Z" fill="#E75221"/>
<path d="M172.108 117.844L169.523 119.337L170.352 121.319L172.962 119.826L172.108 117.844Z" fill="#C6C6C6"/>
<path d="M185.686 113.266L183.102 114.759L183.931 116.716L186.54 115.248L185.686 113.266Z" fill="#E75221"/>
<path d="M182.569 115.055L179.984 116.548L180.813 118.53L183.423 117.037L182.569 115.055Z" fill="#C6C6C6"/>
<path d="M176.327 118.648L173.742 120.117L174.571 122.099L177.18 120.606L176.327 118.648Z" fill="#CDD7D8"/>
<path d="M173.21 120.438L170.625 121.93L171.454 123.888L174.063 122.395L173.21 120.438Z" fill="#C6C6C6"/>
<g opacity="0.2">
<path d="M192.053 158.031V160.356L176.812 169.191V166.866L192.053 158.031ZM192.053 161.751L176.812 170.586V172.911L192.053 164.076V161.751ZM192.053 165.471L176.812 174.306V176.632L192.053 167.796V165.471ZM192.053 169.191L176.812 178.027V180.352L192.053 171.516V169.191ZM192.053 172.911L176.812 181.747V184.072L192.053 175.236V172.911ZM192.053 176.632L176.812 185.467V187.792L192.053 178.957V176.632Z" fill="#1D1D1B"/>
</g>
<path d="M185.541 216.646L0 195.476V179.812L185.541 201.252V216.646Z" fill="#8AA6AA"/>
<path d="M3.75691 200.643L102.538 257.839C107.537 260.726 115.632 260.726 120.631 257.839L181.812 222.376C186.81 219.488 186.81 214.789 181.812 211.901L83.0305 154.705C78.0317 151.817 69.9361 151.817 64.9373 154.705L3.75691 190.168C-1.24189 193.056 -1.24189 197.755 3.75691 200.643Z" fill="#8AA6AA"/>
<path d="M3.75691 185.072L102.538 242.268C107.537 245.156 115.632 245.156 120.631 242.268L181.812 206.805C186.81 203.917 186.81 199.218 181.812 196.33L83.0305 139.135C78.0317 136.247 69.9361 136.247 64.9373 139.135L3.75691 174.598C-1.24189 177.485 -1.24189 182.185 3.75691 185.072Z" fill="#8AA6AA"/>
<path d="M121.997 175.136L96.9297 160.599V0L121.997 14.5376V175.136Z" fill="#8AA6AA"/>
<path d="M65.3484 207.957L121.993 175.138V14.5391L40.2812 32.8212L65.3484 207.957Z" fill="#CDD7D8"/>
<path d="M166.986 160.596L175.374 155.75L137.53 133.797L129.117 138.643L166.986 160.596Z" fill="#DADADA"/>
<path d="M105.148 138.641V204.109C105.148 207.927 107.66 211.769 112.708 214.681C122.778 220.531 139.116 220.531 149.211 214.681C154.259 211.769 156.77 207.927 156.77 204.109V138.641H105.173H105.148Z" fill="#8AA6AA"/>
<path d="M122.314 186.39V198.798L84.4453 176.845V164.461L122.314 186.39Z" fill="#575756"/>
<path d="M175.373 155.75V168.134L122.312 198.8V186.416L175.373 155.75Z" fill="#3C3C3B"/>
<path d="M130.705 167.96V181.543L92.8359 159.614V146.031L130.705 167.96Z" fill="#878787"/>
<path d="M169.037 145.741L130.705 167.964L127.315 165.981L123.877 163.999L120.317 161.943L116.903 159.961L113.319 157.88L109.905 155.898L106.345 153.842L102.907 151.86L99.3222 149.779L95.9084 147.797L92.8359 146.01L131.168 123.812H131.193L134.241 125.599L137.679 127.582L141.239 129.637L144.677 131.62L148.237 133.676L151.651 135.658L155.236 137.738L158.649 139.721L162.234 141.801L165.623 143.783L169.037 145.741Z" fill="#DADADA"/>
<path d="M169.059 145.742V159.35L130.727 181.572V167.965L169.059 145.742Z" fill="#B2B2B2"/>
<path d="M165.621 143.787L127.313 165.985L123.875 164.003L162.232 141.805L165.621 143.787Z" fill="#575756"/>
<path d="M158.644 139.725L120.312 161.947L116.898 159.965L155.231 137.742L158.644 139.725Z" fill="#575756"/>
<path d="M151.652 135.662L113.32 157.885L109.906 155.902L148.238 133.68L151.652 135.662Z" fill="#575756"/>
<path d="M144.677 131.623L106.344 153.845L102.906 151.863L141.238 129.641L144.677 131.623Z" fill="#575756"/>
<path d="M137.677 127.584L99.32 149.782L95.9062 147.799L134.238 125.602L137.677 127.584Z" fill="#575756"/>
<path d="M127.289 168.234L127.313 165.982L123.875 164V166.252L127.289 168.234Z" fill="#3C3C3B"/>
<path d="M120.312 164.195V161.943L116.898 159.961V162.213L120.312 164.195Z" fill="#3C3C3B"/>
<path d="M113.32 160.132V157.881L109.906 155.898V158.15L113.32 160.132Z" fill="#3C3C3B"/>
<path d="M106.344 156.093V153.842L102.906 151.859V154.111L106.344 156.093Z" fill="#3C3C3B"/>
<path d="M99.32 152.031V149.779L95.9062 147.797V150.048L99.32 152.031Z" fill="#3C3C3B"/>
<path d="M122.314 186.392L130.702 181.546L92.8335 159.617L84.4453 164.463L122.314 186.392Z" fill="#DADADA"/>
<path d="M107.831 107.68C107.831 100.191 102.588 97.1564 96.1263 100.901C89.6645 104.645 84.4219 113.75 84.4219 121.239C84.4219 128.728 89.6645 131.763 96.1263 128.018C102.588 124.274 107.831 115.169 107.831 107.68Z" fill="#DADADA"/>
<path d="M100.126 107.558L92.1641 121.398L99.8086 125.828L107.77 111.988L100.126 107.558Z" fill="#3C3C3B"/>
<path d="M101.758 111.203C101.758 107.606 99.2462 106.137 96.125 107.948C93.0038 109.759 90.4922 114.14 90.4922 117.738C90.4922 121.335 93.0038 122.804 96.125 120.993C99.2462 119.182 101.758 114.801 101.758 111.203Z" fill="#3C3C3B"/>
<path d="M109.414 115.633C109.414 112.035 106.902 110.567 103.781 112.378C100.66 114.189 98.1484 118.57 98.1484 122.167C98.1484 125.765 100.66 127.234 103.781 125.422C110.56 121.507 109.414 123.489 109.414 115.633Z" fill="#DADADA"/>
<path d="M107.398 114.458L101.766 124.25L106.77 127.15L112.403 117.358L107.398 114.458Z" fill="#9D9D9C"/>
<path d="M108.559 117.057C108.559 114.512 106.779 113.484 104.584 114.757C102.389 116.029 100.609 119.138 100.609 121.683C100.609 124.228 102.389 125.256 104.584 123.984C106.779 122.711 108.559 119.603 108.559 117.057Z" fill="#9D9D9C"/>
<path d="M113.559 119.94C113.559 117.395 111.779 116.367 109.584 117.64C107.389 118.912 105.609 122.02 105.609 124.566C105.609 127.111 107.389 128.139 109.584 126.866C111.779 125.594 113.559 122.485 113.559 119.94Z" fill="#DADADA"/>
<path d="M111.308 119.765L108.297 125L114.273 128.463L117.285 123.228L111.308 119.765Z" fill="#9D9D9C"/>
<path d="M111.907 121.139C111.907 119.768 110.956 119.23 109.785 119.891C108.615 120.576 107.664 122.24 107.664 123.611C107.664 124.981 108.615 125.52 109.785 124.859C110.956 124.174 111.907 122.509 111.907 121.139Z" fill="#9D9D9C"/>
<path d="M117.907 124.592C117.907 123.221 116.956 122.683 115.785 123.344C114.615 124.029 113.664 125.693 113.664 127.064C113.664 128.434 114.615 128.973 115.785 128.312C116.956 127.627 117.907 125.963 117.907 124.592Z" fill="#DADADA"/>
<path d="M118.807 123.123C118.807 120.652 117.076 119.648 114.954 120.896C112.833 122.145 111.102 125.13 111.102 127.602C111.102 130.074 112.833 131.078 114.954 129.829C117.076 128.581 118.807 125.595 118.807 123.123Z" fill="#706F6F"/>
<path d="M124.444 120.538L115.531 136.031L119.29 138.209L128.203 122.716L124.444 120.538Z" fill="#3C3C3B"/>
<path d="M126.295 124.644C126.295 120.606 123.467 118.966 119.98 120.997C116.493 123.004 113.664 127.923 113.664 131.961C113.664 136 116.493 137.639 119.98 135.608C123.467 133.601 126.295 128.682 126.295 124.644Z" fill="#3C3C3B"/>
<path d="M130.045 126.823C130.045 122.785 127.217 121.145 123.73 123.177C120.243 125.184 117.414 130.103 117.414 134.141C117.414 138.179 120.243 139.819 123.73 137.788C127.217 135.781 130.045 130.862 130.045 126.823Z" fill="#706F6F"/>
<path d="M127.659 128.264C127.659 125.792 125.927 124.789 123.806 126.037C121.684 127.285 119.953 130.271 119.953 132.743C119.953 135.215 121.684 136.218 123.806 134.97C125.927 133.722 127.659 130.736 127.659 128.264Z" fill="#DADADA"/>
<path d="M125.609 129.44C125.609 128.289 124.804 127.824 123.804 128.387C122.805 128.95 122 130.37 122 131.52C122 132.67 122.805 133.135 123.804 132.572C124.804 132.009 125.609 130.59 125.609 129.44Z" fill="#3C3C3B"/>
<path d="M113.336 141.461L125.943 148.779V156.757L113.336 149.464V141.461Z" fill="#9D9D9C"/>
<path d="M140.208 125.867L152.839 133.185L125.943 148.775L113.336 141.457L140.208 125.867Z" fill="#DADADA"/>
<path d="M152.841 141.191V133.188L125.945 148.777V156.756L152.841 141.191Z" fill="#878787"/>
<path d="M139.358 128.266H125.922V137.101H139.358V128.266Z" fill="#878787"/>
<path d="M132.652 140.97C136.369 140.97 139.382 139.228 139.382 137.079C139.382 134.93 136.369 133.188 132.652 133.188C128.935 133.188 125.922 134.93 125.922 137.079C125.922 139.228 128.935 140.97 132.652 140.97Z" fill="#878787"/>
<path d="M132.652 132.158C136.369 132.158 139.382 130.416 139.382 128.266C139.382 126.117 136.369 124.375 132.652 124.375C128.935 124.375 125.922 126.117 125.922 128.266C125.922 130.416 128.935 132.158 132.652 132.158Z" fill="#DADADA"/>
<path d="M135.086 126.845C136.427 127.628 136.427 128.901 135.086 129.684C133.745 130.467 131.55 130.467 130.209 129.684C128.868 128.901 128.868 127.628 130.209 126.845C131.55 126.062 133.745 126.062 135.086 126.845Z" fill="#878787"/>
<path d="M133.066 124.164H131.359V129.402H133.066V124.164Z" fill="#3C3C3B"/>
<path d="M132.842 129.03C133.184 129.225 133.184 129.544 132.842 129.739C132.501 129.935 131.965 129.935 131.623 129.739C131.282 129.544 131.282 129.225 131.623 129.03C131.965 128.834 132.501 128.834 132.842 129.03Z" fill="#3C3C3B"/>
<path d="M132.842 123.795C133.184 123.991 133.184 124.309 132.842 124.505C132.501 124.701 131.965 124.701 131.623 124.505C131.282 124.309 131.282 123.991 131.623 123.795C131.965 123.599 132.501 123.599 132.842 123.795Z" fill="#575756"/>
<path d="M136.286 123.695H128.41L127.117 115.227H137.578L136.286 123.695Z" fill="#9D9D9C"/>
<path d="M135.136 122.083C136.672 122.964 136.672 124.432 135.136 125.313C133.6 126.194 131.113 126.194 129.552 125.313C127.991 124.432 128.016 122.964 129.552 122.083C131.088 121.202 133.575 121.202 135.136 122.083Z" fill="#9D9D9C"/>
<path d="M136.042 113.1C138.09 114.275 138.09 116.208 136.042 117.383C133.994 118.558 130.677 118.558 128.653 117.383C126.605 116.208 126.605 114.275 128.653 113.1C130.702 111.925 134.018 111.925 136.042 113.1Z" fill="#3C3C3B"/>
<path d="M136.282 106.953H128.406V113.806H136.282V106.953Z" fill="#DADADA"/>
<path d="M132.357 116.06C134.538 116.06 136.307 115.041 136.307 113.784C136.307 112.527 134.538 111.508 132.357 111.508C130.175 111.508 128.406 112.527 128.406 113.784C128.406 115.041 130.175 116.06 132.357 116.06Z" fill="#DADADA"/>
<path d="M132.357 109.232C134.538 109.232 136.307 108.213 136.307 106.956C136.307 105.699 134.538 104.68 132.357 104.68C130.175 104.68 128.406 105.699 128.406 106.956C128.406 108.213 130.175 109.232 132.357 109.232Z" fill="#9D9D9C"/>
<path d="M139.72 97.9453H124.992V107.613H139.72V97.9453Z" fill="#9D9D9C"/>
<path d="M137.554 104.608C140.432 106.272 140.432 108.964 137.554 110.628C134.677 112.292 130.02 112.292 127.142 110.628C124.265 108.964 124.265 106.272 127.142 104.608C130.02 102.943 134.677 102.943 137.554 104.608Z" fill="#9D9D9C"/>
<path d="M137.554 94.9357C140.432 96.5999 140.432 99.292 137.554 100.956C134.677 102.621 130.02 102.621 127.142 100.956C124.265 99.292 124.265 96.5999 127.142 94.9357C130.02 93.2714 134.677 93.2714 137.554 94.9357Z" fill="#9D9D9C"/>
<path d="M142.77 83.0938H121.945V96.7502H142.77V83.0938Z" fill="#3C3C3B"/>
<path d="M139.696 92.4887C143.768 94.8382 143.768 98.6561 139.696 101.006C135.624 103.355 129.04 103.355 124.968 101.006C120.896 98.6561 120.896 94.8382 124.968 92.4887C129.04 90.1392 135.624 90.1392 139.696 92.4887Z" fill="#3C3C3B"/>
<path d="M139.696 78.8324C143.768 81.1819 143.768 84.9999 139.696 87.3494C135.624 89.6989 129.04 89.6989 124.968 87.3494C120.896 84.9999 120.896 81.1819 124.968 78.8324C129.04 76.4829 135.624 76.4829 139.696 78.8324Z" fill="#9D9D9C"/>
<path d="M168.668 53.7422H154.477V77.7757H168.668V53.7422Z" fill="#8AA6AA"/>
<path d="M140.965 96.0868L165.423 81.9164C168.446 80.1542 169.446 77.5355 167.983 75.2105L157.595 58.7395L96.9027 23.5703L40.2578 32.846V56.39L100.951 91.5591L129.383 97.5797C133.406 98.4363 137.942 97.849 140.965 96.0868Z" fill="#8AA6AA"/>
<path d="M140.965 72.5165L165.423 58.3461C168.446 56.5839 169.446 53.9652 167.983 51.6402L157.595 35.1692L96.9027 0L40.2578 32.8197L100.951 67.9888L129.383 74.0094C133.406 74.866 137.942 74.2786 140.965 72.5165Z" fill="#8AA6AA"/>
<path d="M100.979 67.9895L65.353 47.3579L40.2859 32.8203L26.1673 71.3424C18.9251 91.1174 15.2188 112.018 15.2188 133.115V178.906L40.2859 193.443L65.353 207.981V70.9019L100.979 91.5335V67.9895Z" fill="#8AA6AA"/>
<path opacity="0.2" d="M18.3915 177.069V133.113C18.3915 112.359 22.0248 91.9479 29.145 72.4421L41.9468 37.4688L97.787 69.8234V86.0007L62.1615 65.3691V202.424L18.3672 177.044L18.3915 177.069Z" fill="#8AA6AA"/>
<path d="M142.964 49.4375H121.75V54.6015H142.964V49.4375Z" fill="#3C3C3B"/>
<path d="M139.84 50.2442C143.985 52.6426 143.985 56.534 139.84 58.9324C135.694 61.3309 128.989 61.3309 124.843 58.9324C120.698 56.534 120.698 52.6426 124.843 50.2442C128.989 47.8457 135.694 47.8457 139.84 50.2442Z" fill="#3C3C3B"/>
<path d="M139.84 45.0801C143.985 47.4785 143.985 51.3699 139.84 53.7684C135.694 56.1668 128.989 56.1668 124.843 53.7684C120.698 51.3699 120.698 47.4785 124.843 45.0801C128.989 42.6816 135.694 42.6816 139.84 45.0801Z" fill="#DADADA"/>
<path d="M136.939 43.7341C139.475 45.2026 139.475 47.5766 136.939 49.0695C134.403 50.5379 130.282 50.5379 127.746 49.0695C125.21 47.601 125.21 45.2271 127.746 43.7341C130.282 42.2657 134.403 42.2657 136.939 43.7341Z" fill="#9D9D9C"/>
<path d="M99.0187 175.44L96.2734 177.031L102.784 188.349L105.529 186.759L99.0187 175.44Z" fill="#3C3C3B"/>
<path d="M97.6875 178.435C97.6875 175.499 99.7357 174.299 102.296 175.768C104.832 177.236 106.905 180.809 106.905 183.771C106.905 186.732 104.856 187.907 102.296 186.438C99.7601 184.97 97.6875 181.397 97.6875 178.435Z" fill="#3C3C3B"/>
<path d="M94.9297 180.029C94.9297 177.092 96.9779 175.893 99.5383 177.362C102.074 178.83 104.147 182.403 104.147 185.365C104.147 188.326 102.099 189.501 99.5383 188.032C96.9779 186.564 94.9297 182.991 94.9297 180.029Z" fill="#706F6F"/>
<path d="M95.125 181.981C95.125 180.17 96.393 179.435 97.9536 180.341C99.5142 181.247 100.782 183.425 100.782 185.236C100.782 187.047 99.5142 187.781 97.9536 186.876C96.393 185.97 95.125 183.792 95.125 181.981Z" fill="#3C3C3B"/>
<path d="M93.7983 176.539L92.5312 177.273L100.663 191.411L101.931 190.676L93.7983 176.539Z" fill="#706F6F"/>
<path d="M92.1172 180.293C92.1172 176.622 94.7019 175.129 97.8719 176.965C101.042 178.8 103.627 183.279 103.627 186.95C103.627 190.621 101.042 192.114 97.8719 190.279C94.7019 188.443 92.1172 183.964 92.1172 180.293Z" fill="#575756"/>
<path d="M90.8516 181.028C90.8516 177.357 93.4363 175.864 96.6063 177.699C99.7763 179.535 102.361 184.014 102.361 187.685C102.361 191.356 99.7763 192.849 96.6063 191.013C93.4363 189.178 90.8516 184.699 90.8516 181.028Z" fill="#9D9D9C"/>
<path d="M92.5156 181.983C92.5156 179.365 94.3444 178.312 96.6122 179.61C98.8799 180.907 100.709 184.088 100.709 186.707C100.709 189.326 98.8799 190.378 96.6122 189.081C94.3444 187.784 92.5156 184.602 92.5156 181.983Z" fill="#DADADA"/>
<path d="M95.7578 183.87C95.7578 183.332 96.1236 183.111 96.6113 183.381C97.099 183.65 97.4647 184.311 97.4647 184.849C97.4647 185.387 97.099 185.608 96.6113 185.338C96.1236 185.069 95.7578 184.408 95.7578 183.87Z" fill="#575756"/>
<path d="M91.2404 179.48L85.1797 182.992L86.3379 185.006L92.3986 181.494L91.2404 179.48Z" fill="#3C3C3B"/>
<path d="M91 179.948C91 179.434 91.3658 179.213 91.8047 179.483C92.2436 179.752 92.6094 180.388 92.6094 180.902C92.6094 181.416 92.2436 181.636 91.8047 181.367C91.3658 181.098 91 180.462 91 179.948Z" fill="#3C3C3B"/>
<path d="M84.9297 183.471C84.9297 182.957 85.2954 182.737 85.7343 183.006C86.1733 183.275 86.5391 183.912 86.5391 184.426C86.5391 184.94 86.1733 185.16 85.7343 184.891C85.2954 184.621 84.9297 183.985 84.9297 183.471Z" fill="#575756"/>
<path d="M156.933 158.516L147.203 175.43L151.3 177.804L161.029 160.89L156.933 158.516Z" fill="#3C3C3B"/>
<path d="M158.917 162.972C158.917 158.566 155.844 156.78 152.04 158.982C148.236 161.185 145.164 166.545 145.164 170.95C145.164 175.355 148.236 177.142 152.04 174.939C155.844 172.737 158.917 167.377 158.917 162.972Z" fill="#3C3C3B"/>
<path d="M163.011 165.347C163.011 160.941 159.938 159.155 156.134 161.357C152.33 163.56 149.258 168.92 149.258 173.325C149.258 177.73 152.33 179.517 156.134 177.314C159.938 175.112 163.011 169.752 163.011 165.347Z" fill="#706F6F"/>
<path d="M162.773 168.288C162.773 165.595 160.895 164.494 158.554 165.84C156.238 167.186 154.336 170.466 154.336 173.158C154.336 175.85 156.214 176.951 158.554 175.605C160.871 174.259 162.773 170.98 162.773 168.288Z" fill="#3C3C3B"/>
<path d="M164.718 160.165L152.562 181.297L154.463 182.398L166.619 161.267L164.718 160.165Z" fill="#706F6F"/>
<path d="M167.231 165.759C167.231 160.252 163.378 158.025 158.623 160.766C153.868 163.507 150.016 170.213 150.016 175.72C150.016 181.226 153.868 183.454 158.623 180.713C163.378 177.971 167.231 171.266 167.231 165.759Z" fill="#575756"/>
<path d="M169.137 166.86C169.137 161.354 165.285 159.127 160.53 161.868C155.775 164.609 151.922 171.315 151.922 176.821C151.922 182.328 155.775 184.555 160.53 181.814C165.285 179.073 169.137 172.367 169.137 166.86Z" fill="#9D9D9C"/>
<path d="M166.647 168.301C166.647 164.385 163.916 162.794 160.527 164.752C157.137 166.71 154.406 171.458 154.406 175.374C154.406 179.29 157.137 180.88 160.527 178.922C163.892 176.964 166.647 172.217 166.647 168.301Z" fill="#DADADA"/>
<path d="M161.794 171.097C161.794 170.289 161.233 169.971 160.526 170.362C159.819 170.754 159.258 171.757 159.258 172.54C159.258 173.324 159.819 173.666 160.526 173.275C161.233 172.883 161.794 171.88 161.794 171.097Z" fill="#575756"/>
<path d="M168.52 164.42L166.789 167.43L175.87 172.692L177.601 169.682L168.52 164.42Z" fill="#3C3C3B"/>
<path d="M168.915 165.268C168.915 164.485 168.379 164.167 167.696 164.558C167.013 164.95 166.477 165.904 166.477 166.687C166.477 167.471 167.013 167.789 167.696 167.397C168.379 167.006 168.915 166.051 168.915 165.268Z" fill="#3C3C3B"/>
<path d="M177.985 170.502C177.985 169.719 177.449 169.401 176.766 169.793C176.083 170.184 175.547 171.139 175.547 171.922C175.547 172.705 176.083 173.023 176.766 172.632C177.449 172.24 177.985 171.285 177.985 170.502Z" fill="#575756"/>
</svg>
