<svg width="192" height="294" viewBox="0 0 192 294" fill="none" xmlns="http://www.w3.org/2000/svg">
<path d="M191.973 108.164L103.039 56.6797V183.095L191.973 234.58V108.164Z" fill="#CDD7D8"/>
<path d="M103.037 183.095L73.3828 200.202V73.7865L103.037 56.6797V183.095Z" fill="#8AA6AA"/>
<path d="M191.997 203.856V234.544L165.431 219.186L103.008 183.087V152.508H103.035L191.997 203.856Z" fill="#9FA7AA"/>
<path d="M191.999 234.521L0 257.284V226.869L191.999 203.859V234.521Z" fill="#8AA6AA"/>
<path d="M192.001 234.52L103.039 183.172L18.2589 232.115C-6.06548 246.161 -6.06548 268.925 18.2589 282.944L19.1609 283.463C43.4853 297.509 82.9236 297.509 107.221 283.463L192.001 234.52Z" fill="#8AA6AA"/>
<path d="M192.001 203.86L165.435 219.19L107.221 252.803C82.8963 266.849 43.4853 266.849 19.1609 252.803L18.2589 252.283C-6.06548 238.237 -6.06548 215.474 18.2589 201.427L103.039 152.484L192.001 203.832V203.86Z" fill="#9FA7AA"/>
<path opacity="0.3" d="M63.1554 259.664C47.1669 259.664 32.1622 256.112 20.9566 249.635L20.0547 249.116C9.47771 243.022 3.65625 235.125 3.65625 226.872C3.65625 218.646 9.47771 210.749 20.0547 204.627L103.004 156.75L184.613 203.862L105.327 249.635C94.1212 256.112 79.1165 259.664 63.128 259.664H63.1554Z" fill="#1D1D1B"/>
<path d="M191.97 234.58L162.344 251.659V125.271L191.97 108.164V234.58Z" fill="#8AA6AA"/>
<path d="M162.345 125.266V220.966L73.4102 169.591H73.3828L73.4102 73.7812L162.345 125.266Z" fill="#CDD7D8"/>
<g opacity="0.2">
<path d="M104.269 145.956V149.755L79.2344 135.298V131.5L104.269 145.956ZM79.2344 141.392L104.269 155.849V152.05L79.2344 137.594V141.392ZM79.2344 147.486L104.269 161.943V158.144L79.2344 143.688V147.486ZM79.2344 153.58L104.269 168.037V164.238L79.2344 149.782V153.58ZM79.2344 159.674L104.269 174.13V170.332L79.2344 155.876V159.674ZM79.2344 165.768L104.269 180.224V176.426L79.2344 161.97V165.768Z" fill="#1D1D1B"/>
</g>
<path d="M165.869 60.3125L136.242 77.4193L162.343 125.269L191.97 108.162L165.869 60.3125Z" fill="#8AA6AA"/>
<path opacity="0.3" d="M141.195 78.8083L164.454 65.3906L187.029 106.764L163.771 120.182L141.195 78.8083Z" fill="#8AA6AA"/>
<path d="M91.7738 205.609H26.7266V224.383H91.7738V205.609Z" fill="#3C3C3B"/>
<path d="M36.2347 211.102C23.5259 218.426 23.5259 230.313 36.2347 237.664C48.9436 244.988 69.5236 244.988 82.2325 237.664C94.9413 230.341 94.9413 218.453 82.2325 211.102C69.5236 203.778 48.9436 203.778 36.2347 211.102Z" fill="#3C3C3B"/>
<path d="M36.2347 192.329C23.5259 199.652 23.5259 211.54 36.2347 218.891C48.9436 226.214 69.5236 226.214 82.2325 218.891C94.9413 211.567 94.9413 199.68 82.2325 192.329C69.5236 185.005 48.9436 185.005 36.2347 192.329Z" fill="#3C3C3B"/>
<path d="M91.7738 205.609H26.7266V224.383H91.7738V205.609Z" fill="#3C3C3B"/>
<path d="M36.2347 211.102C23.5259 218.426 23.5259 230.313 36.2347 237.664C48.9436 244.988 69.5236 244.988 82.2325 237.664C94.9413 230.341 94.9413 218.453 82.2325 211.102C69.5236 203.778 48.9436 203.778 36.2347 211.102Z" fill="#3C3C3B"/>
<path d="M36.2347 192.329C23.5259 199.652 23.5259 211.54 36.2347 218.891C48.9436 226.214 69.5236 226.214 82.2325 218.891C94.9413 211.567 94.9413 199.68 82.2325 192.329C69.5236 185.005 48.9436 185.005 36.2347 192.329Z" fill="#3C3C3B"/>
<path d="M100.141 191.367H18.3672V214.978H100.141V191.367Z" fill="#B2B2B2"/>
<path d="M30.3381 198.282C14.3769 207.491 14.3769 222.439 30.3381 231.676C46.2993 240.885 72.1815 240.885 88.17 231.676C104.159 222.467 104.131 207.519 88.17 198.282C72.2089 189.073 46.3266 189.073 30.3381 198.282Z" fill="#B2B2B2"/>
<path d="M59.2541 214.979C81.8352 214.979 100.141 204.408 100.141 191.369C100.141 178.329 81.8352 167.758 59.2541 167.758C36.6729 167.758 18.3672 178.329 18.3672 191.369C18.3672 204.408 36.6729 214.979 59.2541 214.979Z" fill="#DADADA"/>
<path d="M51.3529 186.839C47.0074 189.353 47.0074 193.425 51.3529 195.939C55.6985 198.453 62.7772 198.453 67.1228 195.939C71.4684 193.425 71.4684 189.353 67.1228 186.839C62.7772 184.325 55.6985 184.325 51.3529 186.839Z" fill="#3C3C3B"/>
<path d="M74.1133 186.784L88.3253 178.586V165.961L65.9688 169.459V182.084L74.1133 186.784Z" fill="#3C3C3B"/>
<path d="M44.5714 185.391V172.766L22.1875 176.182V188.807L41.5924 191.813L44.5714 185.391Z" fill="#3C3C3B"/>
<path d="M74.1133 174.156L88.3253 165.958L80.1808 161.258L65.9688 169.456L74.1133 174.156Z" fill="#9D9D9C"/>
<path d="M44.5714 172.764L25.1665 169.758L22.1875 176.18L41.5924 179.186L44.5714 172.764Z" fill="#9D9D9C"/>
<path d="M73.5718 155.852H43.6172V191.486H73.5718V155.852Z" fill="#878787"/>
<path d="M48.0194 185.362C42.1706 188.75 42.1706 194.216 48.0194 197.577C53.8682 200.966 63.352 200.966 69.2008 197.577C75.0496 194.188 75.0496 188.723 69.2008 185.362C63.352 181.973 53.8682 181.973 48.0194 185.362Z" fill="#878787"/>
<path d="M48.0194 149.727C42.1706 153.115 42.1706 158.581 48.0194 161.942C53.8682 165.33 63.352 165.33 69.2008 161.942C75.0496 158.553 75.0496 153.088 69.2008 149.727C63.352 146.365 53.8682 146.338 48.0194 149.727Z" fill="#DADADA"/>
<path d="M57.25 200.86L62.4428 212.036L73.5665 210.315V197.69L57.25 188.234V200.86Z" fill="#3C3C3B"/>
<path d="M57.25 188.229L62.4428 199.406L73.5665 197.685L68.3736 186.508L57.25 188.229Z" fill="#9D9D9C"/>
<path d="M40.1218 200.09C41.6523 200.992 41.6523 202.413 40.1218 203.315C38.5913 204.217 36.0769 204.217 34.5463 203.315C33.0158 202.413 33.0158 200.992 34.5463 200.09C36.0769 199.189 38.5913 199.189 40.1218 200.09Z" fill="#9D9D9C"/>
<path d="M88.4734 190.2C90.0039 191.102 90.0039 192.523 88.4734 193.424C86.9429 194.326 84.4284 194.326 82.8979 193.424C81.3674 192.523 81.3674 191.102 82.8979 190.2C84.4284 189.298 86.9429 189.298 88.4734 190.2Z" fill="#9D9D9C"/>
<path d="M66.4988 160.38C65.4329 161.009 64.203 161.473 62.8638 161.774C60.1307 162.43 57.0423 162.43 54.3366 161.774C53.0247 161.473 51.7675 161.009 50.7016 160.38C46.3286 157.866 46.3286 153.767 50.7016 151.253C55.0745 148.739 62.1258 148.739 66.4988 151.253C70.8717 153.767 70.8717 157.866 66.4988 160.38Z" fill="#3C3C3B"/>
<path d="M63.6515 156.695L62.8862 161.778C60.1531 162.434 57.0648 162.434 54.359 161.778L53.5938 156.695H63.6788H63.6515Z" fill="#9D9D9C"/>
<path d="M62.1717 154.642C64.1395 155.79 64.1395 157.621 62.1717 158.768C60.2039 159.916 57.0062 159.916 55.0384 158.768C53.0705 157.621 53.0705 155.79 55.0384 154.642C57.0062 153.494 60.2039 153.494 62.1717 154.642Z" fill="#3C3C3B"/>
<path d="M62.3948 121.523H54.7969V155.3H62.3948V121.523Z" fill="#DADADA"/>
<path d="M58.5959 157.482C60.694 157.482 62.3948 156.503 62.3948 155.296C62.3948 154.088 60.694 153.109 58.5959 153.109C56.4977 153.109 54.7969 154.088 54.7969 155.296C54.7969 156.503 56.4977 157.482 58.5959 157.482Z" fill="#DADADA"/>
<path d="M58.5959 123.708C60.694 123.708 62.3948 122.73 62.3948 121.522C62.3948 120.315 60.694 119.336 58.5959 119.336C56.4977 119.336 54.7969 120.315 54.7969 121.522C54.7969 122.73 56.4977 123.708 58.5959 123.708Z" fill="#9D9D9C"/>
<path d="M65.7003 112.883H51.5156V122.174H65.7003V112.883Z" fill="#9D9D9C"/>
<path d="M63.6241 119.248C66.3846 120.861 66.3846 123.429 63.6241 125.042C60.8637 126.654 56.3542 126.654 53.5937 125.042C50.8333 123.429 50.8333 120.861 53.5937 119.248C56.3542 117.636 60.8637 117.636 63.6241 119.248Z" fill="#9D9D9C"/>
<path d="M63.6241 109.983C66.3846 111.595 66.3846 114.164 63.6241 115.776C60.8637 117.388 56.3542 117.388 53.5937 115.776C50.8333 114.164 50.8333 111.595 53.5937 109.983C56.3542 108.37 60.8637 108.37 63.6241 109.983Z" fill="#9D9D9C"/>
<path d="M68.6233 98.6172H48.5625V111.734H68.6233V98.6172Z" fill="#3C3C3B"/>
<path d="M65.7019 107.639C69.6102 109.907 69.6102 113.569 65.7019 115.837C61.7935 118.105 55.4255 118.105 51.5172 115.837C47.6089 113.569 47.6089 109.907 51.5172 107.639C55.4255 105.37 61.7935 105.37 65.7019 107.639Z" fill="#3C3C3B"/>
<path d="M65.7019 94.5214C69.6102 96.7896 69.6102 100.451 65.7019 102.72C61.7935 104.988 55.4255 104.988 51.5172 102.72C47.6089 100.451 47.6089 96.7896 51.5172 94.5214C55.4255 92.2533 61.7935 92.2533 65.7019 94.5214Z" fill="#9D9D9C"/>
<path d="M165.87 23.4424V60.3069L139.66 75.4188L113.313 90.6401L81.2544 109.141C70.2401 115.481 52.4477 115.481 41.4607 109.141L41.0508 108.895C35.5573 105.725 32.7969 101.571 32.7969 97.4172C32.7969 93.2635 35.53 89.1098 41.0508 85.9125L57.4492 76.4299L89.6176 57.8747L115.964 42.6535L157.562 18.6328L163.219 21.8848L165.488 23.1965L165.843 23.4151L165.87 23.4424Z" fill="#8AA6AA"/>
<path d="M165.874 23.4458V51.7295L131.164 63.6715L101.237 73.9465L32.8281 97.4206V60.1463L79.6458 44.0779L109.546 33.7755L156.09 17.7891L157.566 18.6635L163.223 21.9155L165.492 23.2272L165.874 23.4458Z" fill="#8AA6AA"/>
<path d="M165.484 23.2282L120.634 49.1344L94.2599 64.3557L81.2232 71.8706C74.7184 75.6145 65.8359 77.1448 57.418 76.4616C51.5692 75.9971 45.9391 74.4667 41.4295 71.8706L41.0195 71.6247C35.526 68.4547 32.7656 64.301 32.7656 60.1473C32.7656 55.9935 35.4987 51.8398 41.0195 48.6425L70.5914 31.563L96.9384 16.3417L125.253 0L125.636 0.218618L156.055 17.7627L157.531 18.6372L163.188 21.8891L165.457 23.2008L165.484 23.2282Z" fill="#9FA7AA"/>
<g opacity="0.2">
<path d="M108.202 60.9688V63.9474L88.5781 75.2609V72.2822L108.202 60.9688ZM108.202 65.751L88.5781 77.0645V80.0432L108.202 68.7297V65.751ZM108.202 70.5333L88.5781 81.8468V84.8254L108.202 73.512V70.5333ZM108.202 75.3156L88.5781 86.629V89.6077L108.202 78.2942V75.3156ZM108.202 80.0978L88.5781 91.4113V94.39L108.202 83.0765V80.0978ZM108.202 84.8801L88.5781 96.1936V99.1722L108.202 87.8588V84.8801Z" fill="#1D1D1B"/>
</g>
<path d="M68.432 55.9688H48.6719V60.7783H68.432V55.9688Z" fill="#3C3C3B"/>
<path d="M65.5438 56.7353C69.3974 58.9761 69.3974 62.5833 65.5438 64.7968C61.6901 67.0104 55.4314 67.0377 51.5777 64.7968C47.7241 62.556 47.7241 58.9488 51.5777 56.7353C55.4314 54.4945 61.6901 54.4945 65.5438 56.7353Z" fill="#3C3C3B"/>
<path d="M58.5422 61.6806C64.0064 61.6806 68.4359 59.1235 68.4359 55.9692C68.4359 52.8149 64.0064 50.2578 58.5422 50.2578C53.078 50.2578 48.6484 52.8149 48.6484 55.9692C48.6484 59.1235 53.078 61.6806 58.5422 61.6806Z" fill="#DADADA"/>
<path d="M62.833 50.6966C65.1834 52.063 65.1834 54.2765 62.833 55.6429C60.4825 57.0092 56.6289 57.0092 54.2785 55.6429C51.928 54.2765 51.928 52.063 54.2785 50.6966C56.6289 49.3303 60.4825 49.3303 62.833 50.6966Z" fill="#9D9D9C"/>
<path d="M136.703 236.105L162.64 221.13V164.234L136.703 179.182V236.105Z" fill="#8AA6AA"/>
<path d="M120.469 148.741L125.306 151.474L151.216 136.526L146.378 133.766L120.469 148.741Z" fill="#CDD7D8"/>
<path d="M136.703 236.107L120.469 226.789V148.742L125.306 151.475L136.703 179.185V236.107Z" fill="#8AA6AA"/>
<path d="M136.702 179.181L125.305 151.471L151.214 136.523L162.639 164.233L136.702 179.181Z" fill="#CDD7D8"/>
<path d="M135.282 170.36L127.875 152.352L150.232 139.453L157.638 157.462L135.282 170.36Z" fill="#8AA6AA"/>
<path d="M158.568 159.734L160.071 163.369L137.714 176.267L136.211 172.633L158.568 159.734Z" fill="#8AA6AA"/>
<path d="M137.739 166.451L153.701 157.351L147.715 143.359L131.781 152.487L137.739 166.451Z" fill="#F6F6F6"/>
<path d="M147.061 144.969L144.656 146.362L145.449 148.193L147.854 146.8L147.061 144.969Z" fill="#E75221"/>
<path d="M144.167 146.633L141.734 147.999L142.527 149.83L144.959 148.464L144.167 146.633Z" fill="#C6C6C6"/>
<path d="M149.108 149.75L146.703 151.144L147.468 152.975L149.901 151.581L149.108 149.75Z" fill="#CDD7D8"/>
<path d="M146.214 151.422L143.781 152.788L144.574 154.619L146.979 153.253L146.214 151.422Z" fill="#C6C6C6"/>
<path d="M141.567 149.64L143.343 153.821C143.589 154.395 143.37 155.106 142.878 155.406L136.893 158.822C136.374 159.123 135.772 158.877 135.526 158.303L133.75 154.122C133.504 153.548 133.723 152.838 134.215 152.537L140.2 149.121C140.719 148.821 141.321 149.066 141.567 149.64Z" fill="#6AC6D0"/>
<path d="M150.151 152.156L147.719 153.523L148.511 155.354L150.916 153.987L150.151 152.156Z" fill="#C6C6C6"/>
<path d="M148.095 147.398L142.766 150.459L143.558 152.29L148.888 149.229L148.095 147.398Z" fill="#E75221"/>
<path d="M138.507 158.797L136.102 160.163L136.867 161.994L139.299 160.628L138.507 158.797Z" fill="#C6C6C6"/>
<path d="M151.155 154.531L148.75 155.925L149.515 157.756L151.948 156.362L151.155 154.531Z" fill="#E75221"/>
<path d="M148.261 156.203L145.828 157.569L146.621 159.4L149.026 158.034L148.261 156.203Z" fill="#C6C6C6"/>
<path d="M143.557 157.188L141.125 158.581L141.918 160.412L144.323 159.018L143.557 157.188Z" fill="#CDD7D8"/>
<path d="M139.522 161.172L137.117 162.566L137.91 164.396L140.315 163.003L139.522 161.172Z" fill="#C6C6C6"/>
<g opacity="0.2">
<path d="M157.087 196.07V198.229L142.875 206.427V204.268L157.087 196.07ZM157.087 199.514L142.875 207.712V209.871L157.087 201.672V199.514ZM157.087 202.957L142.875 211.155V213.314L157.087 205.116V202.957ZM157.087 206.4L142.875 214.598V216.757L157.087 208.559V206.4ZM157.087 209.843L142.875 218.041V220.2L157.087 212.002V209.843ZM157.087 213.286L142.875 221.485V223.644L157.087 215.445V213.286Z" fill="#1D1D1B"/>
</g>
</svg>
