<svg width="1280" height="248" viewBox="0 0 1280 248" fill="none" xmlns="http://www.w3.org/2000/svg">
<path d="M306.515 0C238.063 0 182.57 55.3472 182.57 123.62C182.57 191.893 238.063 247.24 306.515 247.24C374.967 247.24 430.46 191.893 430.46 123.62C430.46 55.3472 374.967 0 306.515 0ZM306.515 217.274C254.658 217.274 212.615 175.348 212.615 123.62C212.615 71.8926 254.652 29.9661 306.515 29.9661C358.379 29.9661 400.409 71.8926 400.409 123.62C400.409 175.348 358.372 217.274 306.515 217.274Z" fill="#8AA6AA"/>
<path d="M473.376 217.18H140.234V247.498H473.376V217.18Z" fill="#8AA6AA"/>
<path style="mix-blend-mode:multiply" d="M417.831 177.977H382.99C365.992 201.737 338.156 217.261 306.672 217.304H387.383C400.02 206.439 410.405 193.062 417.831 177.977Z" fill="url(#paint0_linear_2443_31731)"/>
<path d="M639.843 0C571.391 0 515.898 55.3472 515.898 123.62C515.898 191.893 571.391 247.24 639.843 247.24C708.295 247.24 763.788 191.893 763.788 123.62C763.788 55.3472 708.295 0 639.843 0ZM639.843 217.274C587.986 217.274 545.943 175.348 545.943 123.62C545.943 71.8926 587.98 29.9661 639.843 29.9661C691.707 29.9661 733.737 71.8926 733.737 123.62C733.737 175.348 691.7 217.274 639.843 217.274Z" fill="#CDD7D8"/>
<path d="M806.662 217.266H473.328V247.238H806.662V217.266Z" fill="#CDD7D8"/>
<path style="mix-blend-mode:multiply" d="M751.159 177.977H716.319C699.32 201.737 671.484 217.261 640 217.304H720.711C733.348 206.439 743.733 193.062 751.159 177.977Z" fill="url(#paint1_linear_2443_31731)"/>
<path d="M973.187 0C904.735 0 849.242 55.3472 849.242 123.62C849.242 191.893 904.735 247.24 973.187 247.24C1041.64 247.24 1097.13 191.893 1097.13 123.62C1097.13 55.3472 1041.64 0 973.187 0ZM973.187 217.274C921.33 217.274 879.287 175.348 879.287 123.62C879.287 71.8926 921.324 29.9661 973.187 29.9661C1025.05 29.9661 1067.08 71.8926 1067.08 123.62C1067.08 175.348 1025.04 217.274 973.187 217.274Z" fill="#9FA7AA"/>
<path d="M1278 217H809C807.895 217 807 217.895 807 219V245C807 246.105 807.895 247 809 247H1278C1279.1 247 1280 246.105 1280 245V219C1280 217.895 1279.1 217 1278 217Z" fill="#9FA7AA"/>
<path style="mix-blend-mode:multiply" d="M1084.5 177.977H1049.66C1032.66 201.737 1004.83 217.261 973.344 217.304H1054.05C1066.69 206.439 1077.08 193.062 1084.5 177.977Z" fill="url(#paint2_linear_2443_31731)"/>
<path style="mix-blend-mode:multiply" d="M473.328 217.273V247.246H639.806C608.899 247.246 580.653 235.935 558.946 217.273H473.328Z" fill="url(#paint3_linear_2443_31731)"/>
<path style="mix-blend-mode:multiply" d="M806.664 217.273V247.246H973.142C942.235 247.246 913.989 235.935 892.282 217.273H806.664Z" fill="url(#paint4_linear_2443_31731)"/>
<path d="M4 217C1.79086 217 0 218.791 0 221V243C0 245.209 1.79086 247 4 247H307C250.384 247 198.611 235.829 158.689 217.372C158.158 217.127 157.584 217 157 217H4Z" fill="#8AA6AA"/>
<path d="M295.821 85.3216C294.942 85.3216 293.742 85.288 292.542 85.3216C291.494 85.3721 290.801 85.0019 291.021 83.8912C291.714 80.4751 289.939 78.4052 287.268 76.7728C285.511 75.6958 284.801 74.2317 285.003 72.145C285.189 70.1425 285.105 68.1062 285.02 66.0868C284.97 64.8415 285.477 64.1853 286.677 64.017C289.297 63.6467 291.9 63.2092 294.537 62.9568C295.872 62.8221 296.464 62.4014 296.345 61.0047C296.244 59.7762 296.295 58.5309 296.345 57.3024C296.379 56.5283 296.024 55.384 297.359 55.485C297.647 55.5018 298.052 56.5789 298.052 57.1847C298.086 68.5774 298.103 79.9534 298.052 91.3461C298.052 92.1034 297.579 93.0795 296.988 93.5675C290.852 98.7338 285.257 104.388 280.474 110.817C279.747 111.809 278.952 112.836 278.58 113.98C278.141 115.259 277.786 116.723 278.006 118.019C280.271 131.145 280.626 144.338 279.662 157.582C279.307 162.496 278.631 167.393 277.837 172.257C277.566 173.99 278.023 175.101 279.476 175.606C282.907 176.834 286.322 178.231 289.888 178.904C301.332 181.075 312.825 181.277 324.302 179.022C328.072 178.281 331.79 177.372 335.036 175.168C335.881 174.596 336.371 173.973 336.134 172.795C333.836 161.672 333.481 150.414 334.022 139.139C334.343 132.542 335.137 125.962 335.948 119.399C336.286 116.69 335.915 114.334 334.478 112.028C331.334 107.03 327.176 102.924 322.899 98.9357C320.888 97.0678 318.691 95.3849 316.679 93.5002C316.105 92.9617 315.53 92.0529 315.53 91.2957C315.462 79.8524 315.462 68.4092 315.513 56.9659C315.513 56.4274 315.986 55.9057 316.24 55.3672C316.578 55.8889 317.119 56.3937 317.186 56.9491C317.322 58.2785 317.305 59.6416 317.22 60.9878C317.136 62.2836 317.66 62.7716 318.927 62.8894C321.446 63.125 323.947 63.5121 326.466 63.815C328.173 64.017 329.035 64.7574 328.883 66.659C328.714 68.8803 328.934 71.1521 328.782 73.3903C328.731 74.2317 328.156 75.0732 327.683 75.8304C327.396 76.2848 326.872 76.6214 326.398 76.9075C323.846 78.5062 322.19 80.5255 322.866 83.7902C323.119 84.9851 322.375 85.3384 321.26 85.2879C319.992 85.2374 318.724 85.2879 317.778 85.2879C318.031 86.6342 318.471 87.7449 318.403 88.8219C318.285 90.6394 318.944 91.8005 320.347 92.9449C326.415 97.926 331.807 103.547 336.32 109.992C338.535 113.139 339.278 116.336 338.619 120.257C335.644 137.775 335.847 155.311 338.923 172.812C339.278 174.815 338.366 176.178 336.912 177.305C334.174 179.426 330.979 180.637 327.632 181.125C321.682 182 315.699 182.623 309.715 183.195C308.228 183.33 307.636 183.666 307.687 185.231C307.788 188.311 307.738 191.407 307.653 194.487C307.653 195.009 307.095 195.497 306.808 196.001C306.504 195.513 305.929 195.025 305.929 194.521C305.845 191.441 305.828 188.345 305.929 185.265C305.98 183.767 305.507 183.33 303.951 183.178C298.019 182.623 292.052 182.118 286.204 181.058C283.178 180.503 280.271 179.005 277.499 177.591C275.386 176.514 274.676 174.629 275.132 172.055C278.242 153.981 278.09 135.908 275.082 117.817C274.828 116.286 275.234 114.418 275.944 113.004C278.682 107.518 282.84 103.059 287.167 98.7843C289.432 96.5293 291.866 94.4257 294.3 92.339C295.162 91.6154 295.517 90.8581 295.517 89.7474C295.517 88.3675 295.72 86.9876 295.872 85.2879L295.821 85.3216Z" fill="#8AA6AA"/>
<path d="M312.817 77.35C312.36 77.6284 310.04 78.9686 306.382 78.9995C302.572 79.0304 300.15 77.6078 299.727 77.35V52H312.817V77.35Z" fill="#8AA6AA"/>
<path d="M287.871 104.28C286.226 106.439 284.496 108.565 282.917 110.757C281.506 112.733 280.935 114.842 280.835 117.267C280.583 122.88 281.305 128.493 281.305 134.106C281.305 135.434 283.404 135.451 283.404 134.106C283.404 128.825 282.833 123.561 282.9 118.28C282.934 115.623 283.438 113.53 285.033 111.388C286.545 109.345 288.123 107.352 289.668 105.326C290.491 104.264 288.661 103.234 287.855 104.28H287.871Z" fill="#8AA6AA"/>
<path d="M323.897 105.326C325.442 107.352 327.02 109.345 328.532 111.388C330.144 113.547 330.631 115.623 330.665 118.28C330.749 123.561 330.161 128.825 330.161 134.106C330.161 135.434 332.26 135.451 332.26 134.106C332.26 128.493 332.982 122.88 332.73 117.267C332.63 114.859 332.059 112.75 330.648 110.757C329.069 108.548 327.339 106.422 325.694 104.28C324.887 103.234 323.057 104.264 323.88 105.326H323.897Z" fill="#8AA6AA"/>
<path opacity="0.74" d="M289.016 111.983C290.191 113.228 295.599 118.609 304.282 119.041C315.08 119.589 321.899 112.033 322.705 111.086" stroke="#8AA6AA" stroke-miterlimit="10" stroke-linecap="round"/>
<path opacity="0.74" d="M291.125 119.523C292.166 120.602 296.885 125.318 304.476 125.7C313.932 126.182 319.877 119.573 320.599 118.742" stroke="#8AA6AA" stroke-miterlimit="10" stroke-linecap="round"/>
<path opacity="0.74" d="M293.711 126.053C294.567 126.95 298.464 130.819 304.711 131.151C312.487 131.55 317.407 126.103 317.995 125.422" stroke="#8AA6AA" stroke-miterlimit="10" stroke-linecap="round"/>
<path opacity="0.74" d="M295.258 132.165C295.997 132.946 299.406 136.334 304.864 136.616C311.649 136.965 315.948 132.215 316.452 131.617" stroke="#8AA6AA" stroke-miterlimit="10" stroke-linecap="round"/>
<path d="M646.497 79.3414C646.038 79.6264 643.722 80.9737 640.062 80.9997C636.266 81.0256 633.849 79.6005 633.406 79.3414V54H646.48V79.3414H646.497Z" fill="#CDD7D8"/>
<path d="M612.488 127H669.989L668.745 150.449L669.989 165.563V173.716C670.023 174.122 669.989 174.654 669.767 175.215C668.949 177.134 666.376 177.764 666.018 177.848C658.604 178.899 651.208 179.949 643.795 181H631.32L619.987 178.941L610 175.355L612.267 156.22V144.496C612.267 143.837 611.806 134.046 611.806 134.046L611.346 127.742L612.471 127H612.488Z" fill="#CDD7D8"/>
<path d="M628.813 83.8813C627.928 83.8813 626.721 83.8474 625.53 83.8813C624.476 83.9321 623.796 83.5596 624.017 82.4592C624.697 79.0563 622.928 76.9739 620.275 75.3486C618.524 74.282 617.81 72.8091 618.014 70.7098C618.201 68.7121 618.116 66.6805 618.031 64.6658C617.98 63.413 618.49 62.7697 619.697 62.6004C622.316 62.2279 624.918 61.7877 627.554 61.5338C628.898 61.4153 629.476 60.9751 629.357 59.5868C629.255 58.3679 629.306 57.1151 629.357 55.8961C629.391 55.1343 629.034 53.983 630.377 54.0846C630.666 54.1016 631.074 55.1851 631.074 55.7776C631.108 67.1545 631.125 78.5484 631.074 89.9253C631.074 90.6702 630.598 91.6521 630.02 92.1431C623.881 97.3067 618.286 102.961 613.507 109.395C612.776 110.377 611.994 111.409 611.602 112.561C611.177 113.83 610.803 115.303 611.024 116.59C613.286 129.711 613.643 142.899 612.674 156.138C612.317 161.048 611.636 165.94 610.854 170.816C610.582 172.543 611.041 173.661 612.487 174.168C615.905 175.404 619.34 176.793 622.894 177.47C634.339 179.637 645.836 179.84 657.315 177.588C661.073 176.843 664.797 175.946 668.045 173.728C668.896 173.153 669.389 172.526 669.151 171.358C666.855 160.252 666.498 148.977 667.042 137.718C667.365 131.116 668.147 124.547 668.964 117.978C669.304 115.269 668.93 112.916 667.484 110.614C664.338 105.619 660.189 101.522 655.903 97.5268C653.896 95.6475 651.686 93.9715 649.679 92.1092C649.101 91.5674 648.539 90.6532 648.539 89.9083C648.471 78.4637 648.471 67.036 648.522 55.5914C648.522 55.0497 648.999 54.5248 649.254 54C649.577 54.5248 650.138 55.0327 650.189 55.5914C650.325 56.9289 650.308 58.2832 650.223 59.6207C650.138 60.9074 650.665 61.3984 651.941 61.5169C654.458 61.7539 656.958 62.1433 659.474 62.448C661.192 62.6512 662.042 63.3961 661.889 65.2922C661.719 67.527 661.94 69.7786 661.787 72.0134C661.736 72.843 661.158 73.6895 660.682 74.4513C660.393 74.9084 659.883 75.2301 659.406 75.5348C656.855 77.1432 655.189 79.1409 655.869 82.4253C656.107 83.6104 655.376 83.9828 654.271 83.932C653.012 83.8812 651.737 83.932 650.784 83.932C651.039 85.2864 651.482 86.3869 651.414 87.4704C651.294 89.2819 651.958 90.4501 653.352 91.6013C659.406 96.5787 664.814 102.199 669.321 108.633C671.532 111.782 672.28 114.965 671.617 118.892C668.658 136.398 668.845 153.937 671.923 171.443C672.28 173.44 671.362 174.812 669.916 175.929C667.178 178.045 663.981 179.247 660.631 179.755C654.679 180.636 648.693 181.262 642.706 181.821C641.21 181.956 640.632 182.295 640.683 183.852C640.785 186.934 640.734 190.015 640.649 193.096C640.649 193.604 640.104 194.112 639.798 194.62C639.492 194.129 638.931 193.638 638.914 193.147C638.829 190.066 638.812 186.984 638.914 183.903C638.965 182.396 638.489 181.956 636.941 181.821C631.006 181.262 625.054 180.754 619.204 179.688C616.177 179.146 613.286 177.639 610.497 176.234C608.388 175.167 607.674 173.271 608.133 170.698C611.245 152.634 611.092 134.552 608.082 116.471C607.827 114.948 608.235 113.068 608.932 111.663C611.67 106.178 615.837 101.725 620.156 97.4421C622.435 95.1905 624.85 93.0912 627.282 91.0088C628.132 90.2808 628.489 89.5358 628.489 88.4185C628.489 87.0471 628.693 85.6589 628.846 83.9659L628.813 83.8813Z" fill="#CDD7D8"/>
<path d="M942.308 109.921L1003.8 109.133C1003.8 110.755 1003.79 112.392 1003.74 114.044C1003.52 123.943 1002.58 133.265 1001.18 141.951C1001.36 146.044 1001.54 150.137 1001.73 154.23C1002.28 157.58 1002.81 160.93 1003.35 164.28C1003.67 166.19 1003.99 168.085 1004.3 169.995C1004.14 170.844 1003.97 171.708 1003.8 172.557C1002.28 173.512 1000.45 174.512 998.319 175.406C995.22 176.71 992.379 177.422 990.067 177.817C981.966 178.195 973.88 178.559 965.779 178.938C960.142 177.983 954.519 177.013 948.882 176.058C946.69 174.921 944.499 173.784 942.323 172.663L941.93 169.206L943.955 157.837L944.65 147.59L944.378 139.571C944.378 139.571 943.698 131.568 943.698 131.264C943.698 130.961 943.879 124.428 943.879 124.428L943.124 118.577L942.338 114.863L941.945 112.195L942.338 109.921H942.308Z" fill="#9FA7AA"/>
<path d="M961.998 79.3038H983.732C983.732 80.5468 983.823 81.714 983.717 82.8509C983.566 84.4122 984.155 85.4127 985.379 86.398C991.576 91.4307 997.032 97.1909 1001.81 103.618C1004.45 107.18 1005.33 110.788 1004.54 115.26C1001.66 131.904 1001.85 148.624 1004.18 165.329C1004.36 166.663 1004.57 167.997 1004.86 169.301C1005.28 171.195 1004.75 172.772 1003.11 173.681C1001.08 174.803 998.997 175.955 996.79 176.607C987.616 179.32 978.17 179.73 968.664 179.426C962.119 179.214 955.59 178.623 949.303 176.637C947.096 175.94 944.996 174.864 942.955 173.757C941.248 172.817 940.749 171.226 941.111 169.24C942.865 159.523 943.832 149.7 943.469 139.862C943.137 130.873 942.033 121.9 941.142 112.926C940.93 110.743 941.036 108.772 942.185 106.847C946.341 99.7982 951.842 93.8864 958.024 88.6566C961.016 86.1251 963.404 83.7301 961.998 79.2734V79.3038ZM975.767 178.517C979.349 178.108 985.712 177.653 991.969 176.561C995.415 175.955 998.694 174.379 1001.97 173.045C1003.23 172.529 1004.01 171.453 1003.74 169.786C1003.17 166.314 1002.73 162.828 1002.31 159.341C1000.54 144.819 1000.8 130.297 1003.26 115.912C1004.12 110.834 1002.99 106.968 999.964 103.103C995.626 97.5396 990.926 92.3251 985.409 87.9442C983.339 86.2919 982.1 84.67 982.583 81.9717C982.825 80.6529 982.145 80.2739 980.875 80.289C975.903 80.3497 970.946 80.3042 965.973 80.3194C963.359 80.3194 963.208 80.3194 963.404 83.0177C963.54 84.9428 962.769 86.0494 961.364 87.2772C957.812 90.3999 954.23 93.5528 951.102 97.0696C948.094 100.465 945.525 104.27 943.016 108.06C942.305 109.136 942.215 110.849 942.336 112.228C942.653 115.836 943.258 119.429 943.696 123.036C945.51 138.043 944.829 152.99 942.608 167.891C942.018 171.817 942.321 172.514 945.963 174.227C946.598 174.53 947.248 174.773 947.913 175C956.044 177.789 964.492 178.214 975.752 178.532L975.767 178.517Z" fill="#9FA7AA"/>
<path d="M966.021 77.0024C970.54 77.0024 974.787 76.9873 979.034 77.0328C979.336 77.0328 979.865 77.5179 979.895 77.821C980.001 78.9276 980.031 80.0494 979.895 81.1408C979.85 81.4894 979.17 82.0199 978.762 82.0351C974.908 82.0957 971.069 82.0957 967.215 82.0351C966.822 82.0351 966.127 81.4743 966.081 81.1256C965.945 79.822 966.021 78.488 966.021 77.0176V77.0024Z" fill="#9FA7AA"/>
<path d="M942.305 109.916L943.106 106.929L950.693 96.8185L956.904 91.2704L988.613 90.6641L992.134 94.0596L995.61 97.8341C995.61 97.8341 1000.34 103.428 1001.08 104.686C1001.82 105.944 1003.41 109.112 1003.41 109.112L1003.05 112.189L942.305 109.9V109.916Z" fill="#9FA7AA"/>
<path d="M968.386 71.3439C968.18 69.5626 969.573 68 971.366 68H973H974.634C976.427 68 977.82 69.5626 977.614 71.3439L976.806 78.3439C976.632 79.8576 975.35 81 973.826 81H972.174C970.65 81 969.368 79.8576 969.194 78.3439L968.386 71.3439Z" fill="#9FA7AA"/>
<rect x="962" y="76" width="22" height="6" rx="3" fill="#9FA7AA"/>
<defs>
<linearGradient id="paint0_linear_2443_31731" x1="417.769" y1="115.563" x2="319.629" y2="263.131" gradientUnits="userSpaceOnUse">
<stop offset="0.42" stop-color="white"/>
<stop offset="0.5" stop-color="#FBFBFB"/>
<stop offset="0.58" stop-color="#EFEFEF"/>
<stop offset="0.66" stop-color="#DCDCDC"/>
<stop offset="0.74" stop-color="#C1C1C1"/>
<stop offset="0.77" stop-color="#B3B3B3"/>
</linearGradient>
<linearGradient id="paint1_linear_2443_31731" x1="751.097" y1="115.563" x2="652.963" y2="263.132" gradientUnits="userSpaceOnUse">
<stop offset="0.42" stop-color="white"/>
<stop offset="0.5" stop-color="#FBFBFB"/>
<stop offset="0.58" stop-color="#EFEFEF"/>
<stop offset="0.66" stop-color="#DCDCDC"/>
<stop offset="0.74" stop-color="#C1C1C1"/>
<stop offset="0.77" stop-color="#B3B3B3"/>
</linearGradient>
<linearGradient id="paint2_linear_2443_31731" x1="1084.44" y1="115.563" x2="986.301" y2="263.131" gradientUnits="userSpaceOnUse">
<stop offset="0.42" stop-color="white"/>
<stop offset="0.5" stop-color="#FBFBFB"/>
<stop offset="0.58" stop-color="#EFEFEF"/>
<stop offset="0.66" stop-color="#DCDCDC"/>
<stop offset="0.74" stop-color="#C1C1C1"/>
<stop offset="0.77" stop-color="#B3B3B3"/>
</linearGradient>
<linearGradient id="paint3_linear_2443_31731" x1="519.031" y1="251.831" x2="619.611" y2="199.119" gradientUnits="userSpaceOnUse">
<stop stop-color="white"/>
<stop offset="0.17" stop-color="#FBFBFB"/>
<stop offset="0.34" stop-color="#EFEFEF"/>
<stop offset="0.5" stop-color="#DCDCDC"/>
<stop offset="0.66" stop-color="#C1C1C1"/>
<stop offset="0.73" stop-color="#B3B3B3"/>
</linearGradient>
<linearGradient id="paint4_linear_2443_31731" x1="852.373" y1="251.831" x2="952.947" y2="199.119" gradientUnits="userSpaceOnUse">
<stop stop-color="white"/>
<stop offset="0.17" stop-color="#FBFBFB"/>
<stop offset="0.34" stop-color="#EFEFEF"/>
<stop offset="0.5" stop-color="#DCDCDC"/>
<stop offset="0.66" stop-color="#C1C1C1"/>
<stop offset="0.73" stop-color="#B3B3B3"/>
</linearGradient>
</defs>
</svg>
