<svg width="52" height="52" viewBox="0 0 52 52" fill="none" xmlns="http://www.w3.org/2000/svg">
<path d="M6.50033 8.6665H36.8337V17.3332H43.3337L49.8337 25.9998V36.8332H45.5003C45.5003 38.5571 44.8155 40.2104 43.5965 41.4294C42.3775 42.6484 40.7242 43.3332 39.0003 43.3332C37.2764 43.3332 35.6231 42.6484 34.4041 41.4294C33.1851 40.2104 32.5003 38.5571 32.5003 36.8332H19.5003C19.5003 38.5571 18.8155 40.2104 17.5965 41.4294C16.3775 42.6484 14.7242 43.3332 13.0003 43.3332C11.2764 43.3332 9.62312 42.6484 8.40413 41.4294C7.18514 40.2104 6.50033 38.5571 6.50033 36.8332H2.16699V12.9998C2.16699 11.8506 2.62354 10.7484 3.4362 9.93571C4.24885 9.12305 5.35105 8.6665 6.50033 8.6665ZM36.8337 20.5832V25.9998H46.5187L42.2503 20.5832H36.8337ZM13.0003 33.5832C12.1384 33.5832 11.3117 33.9256 10.7022 34.5351C10.0927 35.1446 9.75033 35.9712 9.75033 36.8332C9.75033 37.6951 10.0927 38.5218 10.7022 39.1313C11.3117 39.7408 12.1384 40.0832 13.0003 40.0832C13.8623 40.0832 14.6889 39.7408 15.2984 39.1313C15.9079 38.5218 16.2503 37.6951 16.2503 36.8332C16.2503 35.9712 15.9079 35.1446 15.2984 34.5351C14.6889 33.9256 13.8623 33.5832 13.0003 33.5832ZM39.0003 33.5832C38.1384 33.5832 37.3117 33.9256 36.7022 34.5351C36.0927 35.1446 35.7503 35.9712 35.7503 36.8332C35.7503 37.6951 36.0927 38.5218 36.7022 39.1313C37.3117 39.7408 38.1384 40.0832 39.0003 40.0832C39.8623 40.0832 40.6889 39.7408 41.2984 39.1313C41.9079 38.5218 42.2503 37.6951 42.2503 36.8332C42.2503 35.9712 41.9079 35.1446 41.2984 34.5351C40.6889 33.9256 39.8623 33.5832 39.0003 33.5832ZM17.3337 30.3332L30.3337 17.3332L27.2787 14.2565L17.3337 24.2015L12.8053 19.6732L9.75033 22.7498L17.3337 30.3332Z" fill="#8AA6AA"/>
</svg>
