<svg width="34" height="34" viewBox="0 0 34 34" fill="none" xmlns="http://www.w3.org/2000/svg">
<path d="M9.91406 2.83594V5.66927H11.3307V25.5026C11.3307 27.0055 11.9278 28.4468 12.9905 29.5095C14.0532 30.5722 15.4945 31.1693 16.9974 31.1693C18.5003 31.1693 19.9416 30.5722 21.0043 29.5095C22.067 28.4468 22.6641 27.0055 22.6641 25.5026V5.66927H24.0807V2.83594H9.91406ZM15.5807 22.6693C14.7307 22.6693 14.1641 22.1026 14.1641 21.2526C14.1641 20.4026 14.7307 19.8359 15.5807 19.8359C16.4307 19.8359 16.9974 20.4026 16.9974 21.2526C16.9974 22.1026 16.4307 22.6693 15.5807 22.6693ZM18.4141 17.0026C17.5641 17.0026 16.9974 16.4359 16.9974 15.5859C16.9974 14.7359 17.5641 14.1693 18.4141 14.1693C19.2641 14.1693 19.8307 14.7359 19.8307 15.5859C19.8307 16.4359 19.2641 17.0026 18.4141 17.0026ZM19.8307 9.91927H14.1641V5.66927H19.8307V9.91927Z" fill="#8AA6AA"/>
</svg>
