<svg width="34" height="34" viewBox="0 0 34 34" fill="none" xmlns="http://www.w3.org/2000/svg">
<path d="M27.6276 1.41406L26.0834 4.82823L22.6693 6.3724L26.0834 7.91656L27.6276 11.3307L29.1859 7.91656L32.5859 6.3724L29.1859 4.82823L27.6276 1.41406ZM17.0026 2.83073C9.21094 2.83073 2.83594 9.20573 2.83594 16.9974V31.1641H31.1693V16.9974C31.1693 14.9149 30.7018 12.9316 29.8943 11.1466L28.1376 14.9999C28.2509 15.6516 28.3359 16.2891 28.3359 16.9974C28.3359 23.2732 23.2784 28.3307 17.0026 28.3307C10.7268 28.3307 5.66927 23.2732 5.66927 16.9974C5.66927 16.9407 5.66927 16.8699 5.66927 16.8132C7.49338 16.1299 9.15697 15.0777 10.5561 13.7225C11.9552 12.3672 13.0599 10.738 13.8009 8.93656C15.1297 10.5702 16.8058 11.887 18.7075 12.7913C20.6092 13.6955 22.6885 14.1645 24.7943 14.1641C25.4245 14.1635 26.0539 14.1209 26.6784 14.0366L24.5818 9.41823L17.8526 6.3724L22.8534 4.10573C21.0684 3.29823 19.0851 2.83073 17.0026 2.83073ZM12.7526 16.6432C12.2829 16.6432 11.8325 16.8298 11.5004 17.1619C11.1683 17.494 10.9818 17.9444 10.9818 18.4141C10.9818 18.8837 11.1683 19.3341 11.5004 19.6662C11.8325 19.9983 12.2829 20.1849 12.7526 20.1849C12.9852 20.1849 13.2154 20.1391 13.4303 20.0501C13.6451 19.9611 13.8403 19.8307 14.0048 19.6662C14.1692 19.5018 14.2996 19.3066 14.3886 19.0917C14.4776 18.8769 14.5234 18.6466 14.5234 18.4141C14.5234 18.1815 14.4776 17.9512 14.3886 17.7364C14.2996 17.5215 14.1692 17.3263 14.0048 17.1619C13.8403 16.9975 13.6451 16.867 13.4303 16.778C13.2154 16.689 12.9852 16.6432 12.7526 16.6432ZM21.2526 16.6432C20.7829 16.6432 20.3325 16.8298 20.0004 17.1619C19.6683 17.494 19.4818 17.9444 19.4818 18.4141C19.4818 18.8837 19.6683 19.3341 20.0004 19.6662C20.3325 19.9983 20.7829 20.1849 21.2526 20.1849C21.7223 20.1849 22.1727 19.9983 22.5048 19.6662C22.8369 19.3341 23.0234 18.8837 23.0234 18.4141C23.0234 17.9444 22.8369 17.494 22.5048 17.1619C22.1727 16.8298 21.7223 16.6432 21.2526 16.6432Z" fill="#8AA6AA"/>
</svg>
