<svg width="34" height="34" viewBox="0 0 34 34" fill="none" xmlns="http://www.w3.org/2000/svg">
<path d="M25.5824 32.5807H27.9341C29.1241 32.5807 30.1016 31.6599 30.2432 30.4982L32.5807 7.15156H25.4974V1.41406H22.7066V7.15156H15.6657L16.0907 10.4666C18.5132 11.1324 20.7799 12.3366 22.1399 13.6682C24.1799 15.6799 25.5824 17.7624 25.5824 21.1624V32.5807ZM1.41406 31.1641V29.7474H22.7066V31.1641C22.7066 31.9291 22.0691 32.5807 21.2474 32.5807H2.83073C2.05156 32.5807 1.41406 31.9291 1.41406 31.1641ZM22.7066 21.2474C22.7066 9.91406 1.41406 9.91406 1.41406 21.2474H22.7066ZM1.41406 24.0807H22.6641V26.9141H1.41406V24.0807Z" fill="#8AA6AA"/>
</svg>
