<svg width="34" height="34" viewBox="0 0 34 34" fill="none" xmlns="http://www.w3.org/2000/svg">
<path d="M5.97844 15.9943L15.9943 5.97844C19.3234 2.66344 24.6926 2.66344 28.0218 5.97844C31.3368 9.29344 31.3368 14.6768 28.0218 18.0059L18.0059 28.0218C14.6768 31.3368 9.29344 31.3368 5.97844 28.0218C2.66344 24.6926 2.66344 19.3234 5.97844 15.9943ZM7.9901 18.0059C6.5026 19.4793 6.00677 21.5901 6.51677 23.4743L15.0026 15.0026L21.0093 21.0093L26.0101 15.9943C28.2343 13.7843 28.2343 10.2001 26.0101 7.9901C23.8001 5.76594 20.2159 5.76594 18.0059 7.9901L7.9901 18.0059Z" fill="#8AA6AA"/>
</svg>
