<svg width="113" height="110" viewBox="0 0 113 110" fill="none" xmlns="http://www.w3.org/2000/svg">
<path opacity="0.3" d="M34.167 68.3333H170.834V162.292H34.167V68.3333Z" fill="#8AA6AA"/>
<path d="M170.833 51.2499H136.666V34.1666C136.666 24.6853 129.064 17.0833 119.583 17.0833H85.4163C75.9351 17.0833 68.333 24.6853 68.333 34.1666V51.2499H34.1663C24.6851 51.2499 17.1684 58.852 17.1684 68.3333L17.083 162.292C17.083 171.773 24.6851 179.375 34.1663 179.375H170.833C180.314 179.375 187.916 171.773 187.916 162.292V68.3333C187.916 58.852 180.314 51.2499 170.833 51.2499ZM85.4163 34.1666H119.583V51.2499H85.4163V34.1666ZM170.833 162.292H34.1663V68.3333H170.833V162.292Z" fill="#8AA6AA"/>
</svg>
