<svg width="12" height="20" viewBox="0 0 12 20" fill="none" xmlns="http://www.w3.org/2000/svg">
<path d="M6 17C6.39782 17 6.77936 17.158 7.06066 17.4393C7.34196 17.7206 7.5 18.1022 7.5 18.5C7.5 18.8978 7.34196 19.2794 7.06066 19.5607C6.77936 19.842 6.39782 20 6 20C5.60218 20 5.22064 19.842 4.93934 19.5607C4.65804 19.2794 4.5 18.8978 4.5 18.5C4.5 18.1022 4.65804 17.7206 4.93934 17.4393C5.22064 17.158 5.60218 17 6 17ZM6 0C7.5913 0 9.11742 0.632141 10.2426 1.75736C11.3679 2.88258 12 4.4087 12 6C12 8.165 11.247 9.29 9.326 10.923C7.399 12.56 7 13.297 7 15H5C5 12.526 5.787 11.305 8.031 9.399C9.548 8.11 10 7.434 10 6C10 4.93913 9.57857 3.92172 8.82843 3.17157C8.07828 2.42143 7.06087 2 6 2C4.93913 2 3.92172 2.42143 3.17157 3.17157C2.42143 3.92172 2 4.93913 2 6V7H0V6C0 4.4087 0.632141 2.88258 1.75736 1.75736C2.88258 0.632141 4.4087 0 6 0Z" fill="#111111"/>
</svg>
